<svg width="25" height="27" viewBox="0 0 25 27" fill="none" xmlns="http://www.w3.org/2000/svg">
<path d="M4.84365 21.8704C4.44365 21.6037 4.09965 21.2637 3.69698 20.7824C3.48797 20.5266 3.28086 20.2692 3.07565 20.0104C2.45831 19.2437 2.06898 18.8904 1.66631 18.745C1.33338 18.6255 1.06156 18.3786 0.910657 18.0587C0.759753 17.7388 0.742124 17.372 0.861648 17.039C0.981172 16.7061 1.22806 16.4343 1.548 16.2834C1.86793 16.1325 2.23471 16.1148 2.56765 16.2344C3.57031 16.5944 4.24898 17.2144 5.16365 18.3517C5.03831 18.1957 5.61698 18.921 5.74098 19.0704C5.99431 19.373 6.18098 19.557 6.32765 19.6544C6.59965 19.837 7.11031 19.9157 7.86098 19.841C7.89165 19.3317 7.98631 18.837 8.13031 18.381C4.17298 17.413 1.93298 14.861 1.93298 9.85304C1.93298 8.19971 2.42631 6.71171 3.34365 5.46371C3.05298 4.27171 3.09698 2.83037 3.74631 1.20771C3.82 1.02415 3.93361 0.859293 4.0789 0.725077C4.22418 0.59086 4.39751 0.490649 4.58631 0.431705C4.69431 0.399705 4.75565 0.385039 4.86365 0.369039C5.93431 0.205039 7.44631 0.595705 9.41698 1.83037C10.5914 1.55582 11.7936 1.41801 12.9996 1.41971C14.2156 1.41971 15.4236 1.55837 16.5783 1.83037C18.5476 0.586372 20.0623 0.195705 21.141 0.369039C21.2543 0.386372 21.3503 0.409039 21.4316 0.435705C21.6168 0.496741 21.7862 0.597617 21.9281 0.731229C22.07 0.864841 22.1809 1.02794 22.253 1.20904C22.9023 2.83037 22.9463 4.27171 22.6556 5.46237C23.577 6.71037 24.0663 8.18904 24.0663 9.85304C24.0663 14.8624 21.8343 17.4064 17.877 18.3757C18.0436 18.929 18.1303 19.5477 18.1303 20.2157C18.1304 21.4228 18.1251 22.63 18.1143 23.837C18.4137 23.9024 18.6815 24.0688 18.8726 24.3085C19.0637 24.5481 19.1664 24.8462 19.1634 25.1527C19.1604 25.4591 19.052 25.7552 18.8563 25.9911C18.6606 26.227 18.3896 26.3882 18.089 26.4477C16.5703 26.7517 15.445 25.7384 15.445 24.4144L15.4476 23.8197L15.4543 22.8797C15.461 21.9357 15.4636 21.0957 15.4636 20.2157C15.4636 19.2864 15.2196 18.6797 14.897 18.4024C14.0156 17.6424 14.4623 16.1957 15.617 16.0664C19.573 15.6224 21.3996 14.0904 21.3996 9.85304C21.3996 8.57971 20.9836 7.52771 20.1823 6.64771C20.0135 6.4627 19.9002 6.23388 19.8554 5.98745C19.8106 5.74103 19.8361 5.48697 19.929 5.25437C20.1503 4.70237 20.245 3.97837 20.057 3.10237L20.0436 3.10637C19.389 3.29171 18.5636 3.69304 17.5663 4.3717C17.4055 4.48084 17.2228 4.55351 17.0309 4.5846C16.839 4.61569 16.6427 4.60447 16.4556 4.5517C15.3302 4.24009 14.1675 4.08353 12.9996 4.08637C11.813 4.08637 10.637 4.24504 9.54365 4.55304C9.35727 4.60538 9.16174 4.61651 8.97062 4.58566C8.77951 4.5548 8.59741 4.48271 8.43698 4.37437C7.43431 3.69837 6.60498 3.29837 5.94631 3.11171C5.75431 3.98237 5.84898 4.7037 6.06898 5.25437C6.16206 5.48685 6.18778 5.74084 6.14322 5.98725C6.09865 6.23367 5.98559 6.46256 5.81698 6.64771C5.02098 7.51971 4.59965 8.59171 4.59965 9.85304C4.59965 14.0824 6.42765 15.6237 10.3623 16.0664C11.5156 16.1957 11.9636 17.6357 11.0876 18.397C10.8316 18.621 10.5156 19.373 10.5156 20.2157V24.4157C10.5156 25.7304 9.40231 26.7157 7.90231 26.453C7.598 26.3996 7.32169 26.2421 7.1206 26.0076C6.91952 25.773 6.80613 25.4759 6.79984 25.167C6.79354 24.8581 6.89472 24.5566 7.08608 24.314C7.27743 24.0714 7.5471 23.9028 7.84898 23.837V22.517C6.63565 22.5984 5.63298 22.3997 4.84365 21.8704Z" fill="#1E1E22"/>
</svg>
