<svg width="20" height="20" viewBox="0 0 20 20" fill="none" xmlns="http://www.w3.org/2000/svg">
<g filter="url(#filter0_i_8415_8925)">
<circle cx="10" cy="10" r="10" fill="white"/>
</g>
<circle cx="10" cy="10" r="9.6" stroke="#DEDEDE" stroke-width="0.8"/>
<g clip-path="url(#clip0_8415_8925)">
<path d="M12.6567 8.04484C12.4478 7.92544 12.1791 7.92544 11.9403 8.04484L10.2687 9.02992L9.13433 9.65678L7.49254 10.6419C7.28358 10.7613 7.01493 10.7613 6.77612 10.6419L5.49254 9.86574C5.28358 9.74633 5.13433 9.50753 5.13433 9.23887V7.74633C5.13433 7.50753 5.25373 7.26872 5.49254 7.11947L6.77612 6.3732C6.98507 6.2538 7.25373 6.2538 7.49254 6.3732L8.77612 7.14932C8.98507 7.26872 9.13433 7.50753 9.13433 7.77619V8.76126L10.2687 8.10454V7.08962C10.2687 6.85081 10.1493 6.61201 9.91045 6.46275L7.52239 5.05977C7.31343 4.94036 7.04478 4.94036 6.80597 5.05977L4.35821 6.4926C4.1194 6.61201 4 6.85081 4 7.08962V9.89559C4 10.1344 4.1194 10.3732 4.35821 10.5225L6.77612 11.9254C6.98507 12.0448 7.25373 12.0448 7.49254 11.9254L9.13433 10.9702L10.2687 10.3135L11.9104 9.35827C12.1194 9.23887 12.3881 9.23887 12.6269 9.35827L13.9104 10.1045C14.1194 10.2239 14.2687 10.4628 14.2687 10.7314V12.2239C14.2687 12.4628 14.1493 12.7016 13.9104 12.8508L12.6567 13.5971C12.4478 13.7165 12.1791 13.7165 11.9403 13.5971L10.6567 12.8508C10.4478 12.7314 10.2985 12.4926 10.2985 12.2239V11.2687L9.16418 11.9254V12.9105C9.16418 13.1493 9.28358 13.3881 9.52239 13.5374L11.9403 14.9404C12.1493 15.0598 12.4179 15.0598 12.6567 14.9404L15.0746 13.5374C15.2836 13.418 15.4328 13.1792 15.4328 12.9105V10.0747C15.4328 9.83589 15.3134 9.59708 15.0746 9.44783L12.6567 8.04484Z" fill="#8247E5"/>
</g>
<defs>
<filter id="filter0_i_8415_8925" x="0" y="0" width="20" height="23.2" filterUnits="userSpaceOnUse" color-interpolation-filters="sRGB">
<feFlood flood-opacity="0" result="BackgroundImageFix"/>
<feBlend mode="normal" in="SourceGraphic" in2="BackgroundImageFix" result="shape"/>
<feColorMatrix in="SourceAlpha" type="matrix" values="0 0 0 0 0 0 0 0 0 0 0 0 0 0 0 0 0 0 127 0" result="hardAlpha"/>
<feOffset dy="3.2"/>
<feGaussianBlur stdDeviation="1.6"/>
<feComposite in2="hardAlpha" operator="arithmetic" k2="-1" k3="1"/>
<feColorMatrix type="matrix" values="0 0 0 0 0 0 0 0 0 0 0 0 0 0 0 0 0 0 0.05 0"/>
<feBlend mode="normal" in2="shape" result="effect1_innerShadow_8415_8925"/>
</filter>
<clipPath id="clip0_8415_8925">
<rect width="11.4627" height="10" fill="white" transform="translate(4 5)"/>
</clipPath>
</defs>
</svg>
