<svg width="205" height="205" viewBox="0 0 205 205" fill="none" xmlns="http://www.w3.org/2000/svg">
<g filter="url(#filter0_d)">
<circle cx="102.457" cy="88.457" r="73.457" fill="white"/>
</g>
<path fill-rule="evenodd" clip-rule="evenodd" d="M103.848 44.9531C79.9399 44.9531 60.3789 64.5141 60.3789 88.4212C60.3789 112.328 79.9399 131.892 103.848 131.892C127.757 131.892 147.318 112.331 147.318 88.4226C147.318 64.5141 127.757 44.9531 103.848 44.9531ZM134.712 64.9491C136.452 67.1229 138.189 69.2952 139.059 71.904C136.45 77.1202 133.408 80.5976 129.496 81.9027C126.018 83.2064 122.976 82.7714 119.932 82.3363C116.889 81.9027 113.412 81.4663 111.238 84.0765C109.065 86.6839 109.935 90.1613 110.803 93.2051C111.673 95.8125 112.107 98.8549 110.803 100.594C108.629 103.637 102.545 103.202 102.545 103.202C98.1972 102.767 94.7197 99.725 94.7197 98.8549C94.7197 98.4199 96.0234 97.9848 96.8935 97.5512C99.0672 96.6812 102.11 95.3775 103.413 91.9C104.718 88.4226 103.848 84.0751 101.24 81.0327C99.0672 78.8589 96.8935 77.9903 95.1548 77.5552C93.4146 78.4253 92.981 78.4253 92.546 77.5552C91.6759 75.8151 92.546 72.3391 94.2861 69.2966C97.7621 64.5141 104.718 64.0791 116.019 63.6454C122.106 63.6454 128.626 64.0791 134.712 64.9491ZM64.725 88.4212C64.725 80.5962 66.8988 73.6413 70.8112 67.5551C72.985 68.4251 74.7237 69.7288 76.4624 71.4676C79.5048 74.5114 82.1136 78.8575 81.2436 80.5962C80.81 81.0312 80.3735 81.4663 79.5048 81.9013C78.2012 82.77 76.4624 83.64 75.1587 85.8124C74.2887 87.5525 74.7237 89.2898 74.7237 90.1599V91.8986C74.2887 94.0724 71.2463 96.2461 65.5951 97.9848C65.16 94.941 64.725 91.8986 64.725 88.4212ZM103.848 127.546C101.24 127.546 99.0672 127.111 96.4584 126.676C98.1986 124.937 99.9359 123.198 101.675 121.895C104.718 119.286 107.326 117.547 109.5 117.982C109.935 117.982 110.37 118.417 111.238 118.852C112.108 119.721 113.412 120.59 115.151 120.59C117.325 120.59 118.628 119.72 119.932 118.851C120.367 118.417 121.236 117.981 122.106 117.547C123.844 117.112 126.018 117.547 128.192 118.851C121.236 124.502 112.977 127.546 103.848 127.546ZM131.669 116.244C127.322 113.635 123.844 112.766 120.801 113.635C119.497 114.07 118.193 114.938 117.325 115.375C116.454 116.244 116.019 116.244 115.151 116.244C114.716 116.244 114.716 116.244 113.847 115.373C112.977 114.938 112.107 114.07 110.368 114.07C106.457 113.2 102.98 115.809 99.0672 118.851C96.4584 121.025 93.8496 123.198 91.6773 126.241C80.3749 122.328 71.2463 113.2 66.8988 101.899C74.7237 99.2899 78.6362 96.2475 79.0712 91.9V86.6839C79.5048 85.8138 79.9413 85.3802 81.2436 84.9437C82.5487 84.5101 83.8524 83.6415 84.721 81.4677C87.3298 75.8165 79.9399 68.4266 79.0712 67.5565C77.7661 66.6864 75.5924 64.9491 73.42 64.0791C80.3749 55.3869 91.6773 49.7343 103.848 49.7343C114.281 49.7343 123.844 53.6467 130.799 60.603C125.583 60.1666 120.801 59.733 115.586 60.1666C104.283 60.6016 95.5884 61.0367 90.8072 67.5565C88.1999 71.469 86.4612 77.1202 89.0685 80.5976C90.3722 82.7714 92.546 83.2064 94.2847 83.6415C96.0248 84.0751 97.3285 84.5115 98.1972 85.3802C99.9373 87.1189 100.371 90.1613 99.5008 91.9C98.6308 93.6402 97.3285 94.5088 95.1548 95.3775C92.981 96.2475 90.8072 97.1176 90.3722 100.16C90.3722 101.464 90.8072 102.767 91.6773 104.071C93.8496 106.68 98.1972 108.854 102.11 109.289H103.413C106.022 109.289 111.238 108.854 114.282 104.506C116.889 100.594 115.586 96.6811 114.716 93.2037C113.846 90.5963 113.412 88.8576 114.281 87.9875C115.151 87.1175 116.454 87.1175 119.063 87.5525C122.106 87.9875 126.452 88.4226 130.799 86.6824C134.712 85.3802 138.189 82.3363 140.798 77.9903C141.668 81.4677 142.537 85.3787 142.537 89.2912C142.972 99.2899 138.624 109.289 131.668 116.244H131.669Z" fill="#7D90B2"/>
<defs>
<filter id="filter0_d" x="0.472992" y="0.736496" width="203.968" height="203.968" filterUnits="userSpaceOnUse" color-interpolation-filters="sRGB">
<feFlood flood-opacity="0" result="BackgroundImageFix"/>
<feColorMatrix in="SourceAlpha" type="matrix" values="0 0 0 0 0 0 0 0 0 0 0 0 0 0 0 0 0 0 127 0"/>
<feOffset dy="14.2635"/>
<feGaussianBlur stdDeviation="14.2635"/>
<feColorMatrix type="matrix" values="0 0 0 0 0 0 0 0 0 0 0 0 0 0 0 0 0 0 0.05 0"/>
<feBlend mode="normal" in2="BackgroundImageFix" result="effect1_dropShadow"/>
<feBlend mode="normal" in="SourceGraphic" in2="effect1_dropShadow" result="shape"/>
</filter>
</defs>
</svg>
