<svg width="36" height="36" viewBox="0 0 36 36" fill="none" xmlns="http://www.w3.org/2000/svg">
<path d="M30.1656 0H13.71V22.1997H35.9277V5.7441C35.9277 2.59207 33.3338 0 30.1836 0C30.1782 0 30.171 0 30.1656 0V0Z" fill="#142533"/>
<path d="M8.58003 0H5.7441C2.59388 0 0 2.59388 0 5.7441V8.58003H8.58003V0Z" fill="#142533"/>
<path d="M0 13.7099H8.58003V22.2899H0V13.7099Z" fill="#142533"/>
<path d="M27.4199 35.9278H30.2558C33.4079 35.9278 35.9999 33.3339 35.9999 30.1837C35.9999 30.1782 35.9999 30.171 35.9999 30.1656V27.42H27.4199V35.9278Z" fill="#142533"/>
<path d="M13.71 27.42H22.29V36H13.71V27.42Z" fill="#142533"/>
<path d="M0 27.42V30.2559C0 33.4061 2.59388 36 5.7441 36H8.58003V27.42H0Z" fill="#142533"/>
</svg>
