<svg width="35" height="36" viewBox="0 0 35 36" fill="none" xmlns="http://www.w3.org/2000/svg">
<g clip-path="url(#clip0)">
<path d="M32.8075 24.9224L30.717 31.9905L26.6133 30.8682L32.8075 24.9224Z" fill="#E4761B" stroke="#E4761B" stroke-width="0.190564"/>
<path d="M26.6133 30.8682L30.5714 25.445L32.8075 24.9224L26.6133 30.8682Z" fill="#E4761B" stroke="#E4761B" stroke-width="0.190564"/>
<path d="M29.7314 19.5936L32.8071 24.9224L30.571 25.4451L29.7314 19.5936ZM29.7314 19.5936L31.7105 18.2228L32.8071 24.9224L29.7314 19.5936Z" fill="#F6851B" stroke="#F6851B" stroke-width="0.190564"/>
<path d="M27.2129 15.5669L32.9016 13.2366L32.6189 14.5131L27.2129 15.5669ZM32.439 16.0467L27.2129 15.5669L32.6189 14.5131L32.439 16.0467Z" fill="#763D16" stroke="#763D16" stroke-width="0.190564"/>
<path d="M32.439 16.0467L31.7107 18.2228L27.2129 15.5669L32.439 16.0467ZM33.5784 13.7763L32.6189 14.5131L32.9016 13.2366L33.5784 13.7763ZM32.439 16.0467L32.6189 14.5131L33.3814 15.1471L32.439 16.0467Z" fill="#763D16" stroke="#763D16" stroke-width="0.190564"/>
<path d="M22.2012 29.1461L23.6234 29.6002L26.6134 30.8682L22.2012 29.1461Z" fill="#E2761B" stroke="#E2761B" stroke-width="0.190564"/>
<path d="M31.7105 18.2228L32.4387 16.0467L33.0642 16.5264L31.7105 18.2228ZM31.7105 18.2228L25.8076 16.278L27.2127 15.5669L31.7105 18.2228Z" fill="#763D16" stroke="#763D16" stroke-width="0.190564"/>
<path d="M28.6177 8.89294L27.2127 15.5669L25.8076 16.278L28.6177 8.89294Z" fill="#763D16" stroke="#763D16" stroke-width="0.190564"/>
<path d="M32.9016 13.2366L27.2129 15.5669L28.6179 8.89294L32.9016 13.2366Z" fill="#763D16" stroke="#763D16" stroke-width="0.190564"/>
<path d="M28.6172 8.89291L34.5544 8.20752L32.9009 13.2366L28.6172 8.89291Z" fill="#763D16" stroke="#763D16" stroke-width="0.190564"/>
<path d="M31.7105 18.2227L29.7315 19.5935L25.8076 16.278L31.7105 18.2227Z" fill="#F6851B" stroke="#F6851B" stroke-width="0.190564"/>
<path d="M34.2973 3.40125L34.5544 8.20753L28.6172 8.89292L34.2973 3.40125Z" fill="#763D16" stroke="#763D16" stroke-width="0.190564"/>
<path d="M34.2983 3.40125L22.4325 12.0286L22.2783 6.17707L34.2983 3.40125Z" fill="#E2761B" stroke="#E2761B" stroke-width="0.190564"/>
<path d="M13.4531 5.47449L22.2775 6.17701L22.4317 12.0285L13.4531 5.47449Z" fill="#F6851B" stroke="#F6851B" stroke-width="0.190564"/>
<path d="M25.8072 16.278L22.4316 12.0286L28.6173 8.89294L25.8072 16.278Z" fill="#763D16" stroke="#763D16" stroke-width="0.190564"/>
<path d="M25.8076 16.278L29.7315 19.5935L24.2227 20.2018L25.8076 16.278Z" fill="#E4761B" stroke="#E4761B" stroke-width="0.190564"/>
<path d="M24.2222 20.2018L22.4316 12.0286L25.8072 16.278L24.2222 20.2018Z" fill="#E4761B" stroke="#E4761B" stroke-width="0.190564"/>
<path d="M28.6173 8.89292L22.4316 12.0286L34.2974 3.40125L28.6173 8.89292Z" fill="#763D16" stroke="#763D16" stroke-width="0.190564"/>
<path d="M13.5305 30.7311L16.332 33.6525L12.5195 30.1827L13.5305 30.7311Z" fill="#C0AD9E" stroke="#C0AD9E" stroke-width="0.190564"/>
<path d="M26.6133 30.8681L27.9412 25.822L30.5714 25.445L26.6133 30.8681Z" fill="#CD6116" stroke="#CD6116" stroke-width="0.190564"/>
<path d="M2.16992 16.672L7.01904 11.5745L2.79534 16.0638L2.16992 16.672Z" fill="#E2761B" stroke="#E2761B" stroke-width="0.190564"/>
<path d="M30.5707 25.445L27.9405 25.8219L29.7311 19.5935L30.5707 25.445ZM22.4317 12.0285L17.7111 11.8743L13.4531 5.47449L22.4317 12.0285Z" fill="#F6851B" stroke="#F6851B" stroke-width="0.190564"/>
<path d="M29.7311 19.5936L27.9406 25.822L27.7949 22.7806L29.7311 19.5936Z" fill="#E4751F" stroke="#E4751F" stroke-width="0.190564"/>
<path d="M24.2227 20.2018L29.7315 19.5936L27.7952 22.7806L24.2227 20.2018Z" fill="#CD6116" stroke="#CD6116" stroke-width="0.190564"/>
<path d="M17.7119 11.8744L22.4325 12.0286L24.2231 20.2019L17.7119 11.8744Z" fill="#F6851B" stroke="#F6851B" stroke-width="0.190564"/>
<path d="M17.7119 11.8744L4.9723 0.0856934L13.454 5.47456L17.7119 11.8744ZM13.4454 32.5217L2.37639 35.9486L0.166016 27.5098L13.4454 32.5217Z" fill="#E4761B" stroke="#E4761B" stroke-width="0.190564"/>
<path d="M3.81543 18.7796L7.9963 15.4984L11.5003 16.3122L3.81543 18.7796Z" fill="#763D16" stroke="#763D16" stroke-width="0.190564"/>
<path d="M11.5001 16.3122L7.99609 15.4983L9.87234 7.75342L11.5001 16.3122Z" fill="#763D16" stroke="#763D16" stroke-width="0.190564"/>
<path d="M2.7959 16.0638L7.99628 15.4984L3.81541 18.7796L2.7959 16.0638Z" fill="#763D16" stroke="#763D16" stroke-width="0.190564"/>
<path d="M27.7952 22.7806L25.6363 21.6925L24.2227 20.2018L27.7952 22.7806Z" fill="#CD6116" stroke="#CD6116" stroke-width="0.190564"/>
<path d="M2.79613 16.0638L2.42773 14.119L7.99651 15.4984L2.79613 16.0638Z" fill="#763D16" stroke="#763D16" stroke-width="0.190564"/>
<path d="M25.1904 24.1428L25.6359 21.6925L27.7949 22.7806L25.1904 24.1428Z" fill="#233447" stroke="#233447" stroke-width="0.190564"/>
<path d="M27.9406 25.822L25.1904 24.1428L27.7949 22.7806L27.9406 25.822Z" fill="#F6851B" stroke="#F6851B" stroke-width="0.190564"/>
<path d="M7.99648 15.4983L2.4277 14.119L1.97363 12.4826L7.99648 15.4983ZM9.87273 7.75342L7.99648 15.4983L1.97363 12.4826L9.87273 7.75342ZM9.87273 7.75342L17.7118 11.8743L11.5005 16.3122L9.87273 7.75342Z" fill="#763D16" stroke="#763D16" stroke-width="0.190564"/>
<path d="M11.5 16.3123L17.7113 11.8744L20.4786 20.3304L11.5 16.3123ZM20.4786 20.3304L11.8941 20.1504L11.5 16.3123L20.4786 20.3304Z" fill="#E4761B" stroke="#E4761B" stroke-width="0.190564"/>
<path d="M3.81543 18.7797L11.5003 16.3123L11.8944 20.1504L3.81543 18.7797ZM24.2229 20.2019L20.4789 20.3304L17.7117 11.8744L24.2229 20.2019Z" fill="#F6851B" stroke="#F6851B" stroke-width="0.190564"/>
<path d="M25.6363 21.6925L25.1908 24.1428L24.2227 20.2018L25.6363 21.6925Z" fill="#CD6116" stroke="#CD6116" stroke-width="0.190564"/>
<path d="M4.97168 0.0856934L17.7113 11.8744L9.8722 7.75347L4.97168 0.0856934Z" fill="#763D16" stroke="#763D16" stroke-width="0.190564"/>
<path d="M0.166016 27.5098L10.9095 27.0643L13.4454 32.5217L0.166016 27.5098Z" fill="#E4761B" stroke="#E4761B" stroke-width="0.190564"/>
<path d="M13.4451 32.5217L10.9092 27.0643L16.1867 26.8073L13.4451 32.5217Z" fill="#CD6116" stroke="#CD6116" stroke-width="0.190564"/>
<path d="M25.1912 24.1428L27.9414 25.822L29.4578 29.3945L25.1912 24.1428ZM11.8947 20.1504L0.166016 27.5097L3.81571 18.7796L11.8947 20.1504ZM10.9095 27.0642L0.166016 27.5097L11.8947 20.1504L10.9095 27.0642ZM24.2231 20.2018L24.9256 22.7549L21.533 22.9519L24.2231 20.2018ZM21.533 22.9519L20.4792 20.3303L24.2231 20.2018L21.533 22.9519Z" fill="#F6851B" stroke="#F6851B" stroke-width="0.190564"/>
<path d="M16.3325 33.6526L13.4453 32.5217L23.4862 34.2094L16.3325 33.6526Z" fill="#C0AD9E" stroke="#C0AD9E" stroke-width="0.190564"/>
<path d="M3.81485 18.7796L2.16992 16.6721L2.79534 16.0638L3.81485 18.7796Z" fill="#763D16" stroke="#763D16" stroke-width="0.190564"/>
<path d="M24.6257 32.9586L23.4862 34.2094L13.4453 32.5217L24.6257 32.9586Z" fill="#D7C1B3" stroke="#D7C1B3" stroke-width="0.190564"/>
<path d="M25.1654 29.8915L13.4453 32.5217L16.1869 26.8073L25.1654 29.8915Z" fill="#E4761B" stroke="#E4761B" stroke-width="0.190564"/>
<path d="M13.4453 32.5217L25.1654 29.8915L24.6257 32.9586L13.4453 32.5217Z" fill="#D7C1B3" stroke="#D7C1B3" stroke-width="0.190564"/>
<path d="M1.97342 12.4826L1.58789 5.89429L9.87252 7.7534L1.97342 12.4826ZM2.79589 16.0637L1.65643 14.9071L2.42749 14.1189L2.79589 16.0637Z" fill="#763D16" stroke="#763D16" stroke-width="0.190564"/>
<path d="M18.5596 22.0267L20.4787 20.3303L20.2045 24.4769L18.5596 22.0267Z" fill="#CD6116" stroke="#CD6116" stroke-width="0.190564"/>
<path d="M20.4786 20.3303L18.5596 22.0267L15.7666 23.4745L20.4786 20.3303Z" fill="#CD6116" stroke="#CD6116" stroke-width="0.190564"/>
<path d="M29.457 29.3946L28.9344 29.0091L25.1904 24.1428L29.457 29.3946Z" fill="#F6851B" stroke="#F6851B" stroke-width="0.190564"/>
<path d="M15.767 23.4746L11.8945 20.1505L20.479 20.3304L15.767 23.4746Z" fill="#CD6116" stroke="#CD6116" stroke-width="0.190564"/>
<path d="M20.2051 24.4769L20.4792 20.3303L21.533 22.9519L20.2051 24.4769Z" fill="#E4751F" stroke="#E4751F" stroke-width="0.190564"/>
<path d="M1.2793 13.1338L1.97325 12.4827L2.42732 14.119L1.2793 13.1338Z" fill="#763D16" stroke="#763D16" stroke-width="0.190564"/>
<path d="M20.2045 24.4769L15.7666 23.4745L18.5596 22.0266L20.2045 24.4769Z" fill="#233447" stroke="#233447" stroke-width="0.190564"/>
<path d="M9.87252 7.75347L1.58789 5.89436L4.97199 0.0856934L9.87252 7.75347Z" fill="#763D16" stroke="#763D16" stroke-width="0.190564"/>
<path d="M23.4858 34.2095L23.957 35.4946L16.332 33.6526L23.4858 34.2095Z" fill="#C0AD9E" stroke="#C0AD9E" stroke-width="0.190564"/>
<path d="M16.1864 26.8072L15.7666 23.4745L20.2045 24.4769L16.1864 26.8072Z" fill="#F6851B" stroke="#F6851B" stroke-width="0.190564"/>
<path d="M11.8945 20.1505L15.767 23.4746L16.1868 26.8073L11.8945 20.1505Z" fill="#E4751F" stroke="#E4751F" stroke-width="0.190564"/>
<path d="M21.5327 22.952L24.9254 22.7549L28.9349 29.0091L21.5327 22.952ZM11.8944 20.1505L16.1867 26.8073L10.9092 27.0643L11.8944 20.1505Z" fill="#F6851B" stroke="#F6851B" stroke-width="0.190564"/>
<path d="M21.533 22.952L25.7482 29.3689L20.2051 24.477L21.533 22.952Z" fill="#E4751F" stroke="#E4751F" stroke-width="0.190564"/>
<path d="M20.2051 24.4769L25.7482 29.3689L25.1656 29.8915L20.2051 24.4769Z" fill="#F6851B" stroke="#F6851B" stroke-width="0.190564"/>
<path d="M25.1651 29.8915L16.1865 26.8073L20.2046 24.477L25.1651 29.8915ZM28.9347 29.0091L25.7477 29.3689L21.5325 22.952L28.9347 29.0091Z" fill="#F6851B" stroke="#F6851B" stroke-width="0.190564"/>
<path d="M29.7738 32.0247L28.403 34.7748L23.9566 35.4945L29.7738 32.0247ZM23.9566 35.4945L23.4854 34.2094L24.6248 32.9586L23.9566 35.4945Z" fill="#C0AD9E" stroke="#C0AD9E" stroke-width="0.190564"/>
<path d="M24.6253 32.9586L25.4649 32.6244L23.957 35.4945L24.6253 32.9586ZM23.957 35.4945L25.4649 32.6244L29.7743 32.0247L23.957 35.4945Z" fill="#C0AD9E" stroke="#C0AD9E" stroke-width="0.190564"/>
<path d="M28.9346 29.009L29.9884 29.6516L26.7842 30.0371L28.9346 29.009Z" fill="#161616" stroke="#161616" stroke-width="0.190564"/>
<path d="M26.7847 30.0371L25.748 29.3689L28.9351 29.009L26.7847 30.0371ZM26.4163 30.5426L30.3144 30.0714L29.7747 32.0247L26.4163 30.5426Z" fill="#161616" stroke="#161616" stroke-width="0.190564"/>
<path d="M29.774 32.0247L25.4646 32.6244L26.4156 30.5426L29.774 32.0247ZM25.4646 32.6244L24.625 32.9586L25.1647 29.8914L25.4646 32.6244ZM25.1647 29.8914L25.7473 29.3688L26.784 30.0371L25.1647 29.8914ZM29.9882 29.6516L30.3137 30.0714L26.4156 30.5426L29.9882 29.6516Z" fill="#161616" stroke="#161616" stroke-width="0.190564"/>
<path d="M26.4159 30.5426L26.7843 30.0371L29.9885 29.6516L26.4159 30.5426ZM25.165 29.8914L26.4159 30.5426L25.4649 32.6244L25.165 29.8914Z" fill="#161616" stroke="#161616" stroke-width="0.190564"/>
<path d="M26.7843 30.0371L26.4159 30.5426L25.165 29.8915L26.7843 30.0371Z" fill="#161616" stroke="#161616" stroke-width="0.190564"/>
</g>
<defs>
<clipPath id="clip0">
<rect width="34.6176" height="36" fill="white"/>
</clipPath>
</defs>
</svg>
