<svg width="23" height="23" viewBox="0 0 23 23" fill="none" xmlns="http://www.w3.org/2000/svg">
<path d="M16.5498 1.5002L14.2165 3.83353H2.83333V20.1669H19.1667V8.7837L21.5 6.45036V21.3335C21.5 21.6429 21.3771 21.9397 21.1583 22.1585C20.9395 22.3773 20.6428 22.5002 20.3333 22.5002H1.66667C1.35725 22.5002 1.0605 22.3773 0.841709 22.1585C0.622916 21.9397 0.5 21.6429 0.5 21.3335V2.66686C0.5 2.35744 0.622916 2.0607 0.841709 1.8419C1.0605 1.62311 1.35725 1.5002 1.66667 1.5002H16.5498ZM20.8992 0.450195L22.55 2.1022L11.826 12.8262L10.1787 12.8297L10.1763 11.1765L20.8992 0.450195Z" fill="#413AE2"/>
</svg>
