<svg xmlns="http://www.w3.org/2000/svg" width="66.667" height="50.01" viewBox="0 0 66.667 50.01"><defs><style>.a{fill:#fff;}</style></defs><path class="a" d="M66.233,15.543c0-5.86-4.31-10.574-9.637-10.574C49.382,4.63,42.024,4.5,34.51,4.5H32.166c-7.5,0-14.872.13-22.086.469-5.313,0-9.624,4.74-9.624,10.6C.131,20.205-.013,24.841,0,29.477Q-.019,36.431.443,43.4c0,5.86,4.31,10.613,9.624,10.613,7.579.352,15.354.508,23.258.495q11.877.039,23.258-.495c5.326,0,9.637-4.753,9.637-10.613.313-4.649.456-9.285.443-13.934Q66.7,22.51,66.233,15.543ZM26.957,42.253V16.663L45.84,29.451Z" transform="translate(0 -4.5)"/></svg>