<svg xmlns="http://www.w3.org/2000/svg" width="59" height="39.333" viewBox="0 0 59 39.333"><defs><style>.a{fill:#fff;}</style></defs><path class="a" d="M13.111,14.333H45.889V34H13.111Zm40.972,9.833A4.917,4.917,0,0,0,59,29.083v9.833a4.917,4.917,0,0,1-4.917,4.917H4.917A4.917,4.917,0,0,1,0,38.917V29.083a4.917,4.917,0,0,0,4.917-4.917A4.917,4.917,0,0,0,0,19.25V9.417A4.917,4.917,0,0,1,4.917,4.5H54.083A4.917,4.917,0,0,1,59,9.417V19.25A4.917,4.917,0,0,0,54.083,24.167ZM49.167,13.514a2.458,2.458,0,0,0-2.458-2.458H12.292a2.458,2.458,0,0,0-2.458,2.458V34.819a2.458,2.458,0,0,0,2.458,2.458H46.708a2.458,2.458,0,0,0,2.458-2.458Z" transform="translate(0 -4.5)"/></svg>