<svg xmlns="http://www.w3.org/2000/svg" width="52.8" height="58.667" viewBox="0 0 52.8 58.667"><defs><style>.a{fill:#fff;}</style></defs><path class="a" d="M44.188,31.009,41.079,27.9,26.764,42.215,20.545,36l-3.109,3.109,9.328,9.328ZM51.433,7.367H48.5V1.5H42.633V7.367H19.167V1.5H13.3V7.367H10.367a5.84,5.84,0,0,0-5.837,5.867L4.5,54.3a5.865,5.865,0,0,0,5.867,5.867H51.433A5.884,5.884,0,0,0,57.3,54.3V13.233A5.884,5.884,0,0,0,51.433,7.367Zm0,46.933H10.367V22.033H51.433Z" transform="translate(-4.5 -1.5)"/></svg>