<svg width="40" height="40" viewBox="0 0 40 40" fill="none" xmlns="http://www.w3.org/2000/svg">
<circle cx="20" cy="20" r="20" fill="#F2F2FD"/>
<path d="M23.4642 12.75L17.2425 18.9717L17.2492 22.5108L20.7808 22.505L27 16.2858V26.9167C27 27.1377 26.9122 27.3496 26.7559 27.5059C26.5996 27.6622 26.3877 27.75 26.1667 27.75H12.8333C12.6123 27.75 12.4004 27.6622 12.2441 27.5059C12.0878 27.3496 12 27.1377 12 26.9167V13.5833C12 13.3623 12.0878 13.1504 12.2441 12.9941C12.4004 12.8378 12.6123 12.75 12.8333 12.75H23.4642V12.75ZM26.5708 12L27.75 13.18L20.09 20.84L18.9133 20.8425L18.9117 19.6617L26.5708 12V12Z" fill="#413AE2"/>
</svg>
