<svg width="40" height="40" viewBox="0 0 40 40" fill="none" xmlns="http://www.w3.org/2000/svg">
<circle cx="20" cy="20" r="20" fill="#F5EDFC"/>
<path d="M27.8333 13C28.0543 13 28.2663 13.0878 28.4226 13.2441C28.5789 13.4004 28.6667 13.6123 28.6667 13.8333V18.4167C28.1141 18.4167 27.5842 18.6362 27.1935 19.0269C26.8028 19.4176 26.5833 19.9475 26.5833 20.5C26.5833 21.0525 26.8028 21.5824 27.1935 21.9731C27.5842 22.3638 28.1141 22.5833 28.6667 22.5833V27.1667C28.6667 27.3877 28.5789 27.5996 28.4226 27.7559C28.2663 27.9122 28.0543 28 27.8333 28H12.8333C12.6123 28 12.4004 27.9122 12.2441 27.7559C12.0878 27.5996 12 27.3877 12 27.1667V22.5833C12.5525 22.5833 13.0824 22.3638 13.4731 21.9731C13.8638 21.5824 14.0833 21.0525 14.0833 20.5C14.0833 19.9475 13.8638 19.4176 13.4731 19.0269C13.0824 18.6362 12.5525 18.4167 12 18.4167V13.8333C12 13.6123 12.0878 13.4004 12.2441 13.2441C12.4004 13.0878 12.6123 13 12.8333 13H27.8333ZM23.6667 18H17V23H23.6667V18Z" fill="#963AE2"/>
</svg>
