<svg width="28" height="23" viewBox="0 0 28 23" fill="none" xmlns="http://www.w3.org/2000/svg">
<path d="M19.3994 3.39983C18.386 3.39966 17.4131 3.79732 16.6899 4.50725C15.9668 5.21718 15.5512 6.18262 15.5327 7.19583L15.4954 9.29583C15.4932 9.40858 15.4672 9.51959 15.4191 9.62159C15.371 9.72359 15.3018 9.81426 15.2162 9.88767C15.1306 9.96107 15.0304 10.0155 14.9223 10.0475C14.8142 10.0795 14.7005 10.0882 14.5887 10.0732L12.5074 9.79049C9.76871 9.41716 7.14471 8.15583 4.62738 6.05849C3.83004 10.4718 5.38738 13.5292 9.13804 15.8878L11.4674 17.3518C11.5781 17.4214 11.67 17.517 11.7352 17.6303C11.8003 17.7436 11.8368 17.8712 11.8412 18.0018C11.8457 18.1324 11.8181 18.2622 11.7608 18.3797C11.7036 18.4972 11.6184 18.5989 11.5127 18.6758L9.39004 20.2265C10.6527 20.3052 11.8514 20.2492 12.846 20.0518C19.1367 18.7958 23.3194 14.0625 23.3194 6.25449C23.3194 5.61716 21.97 3.39983 19.3994 3.39983ZM12.866 7.14649C12.8893 5.86123 13.2912 4.61139 14.0215 3.55346C14.7517 2.49553 15.7778 1.67652 16.9713 1.19898C18.1647 0.721446 19.4726 0.6066 20.731 0.868823C21.9895 1.13105 23.1426 1.75869 24.046 2.67316C24.994 2.66649 25.8007 2.90649 27.6047 1.81316C27.158 3.99983 26.938 4.94916 25.986 6.25449C25.986 16.4438 19.7234 21.3985 13.3687 22.6665C9.01138 23.5358 2.67537 22.1078 0.859375 20.2118C1.78471 20.1398 5.54471 19.7358 7.71804 18.1452C5.87938 16.9332 -1.43929 12.6265 3.37004 1.04783C5.62738 3.68383 7.91671 5.47849 10.2367 6.43049C11.7807 7.06383 12.1594 7.05049 12.8674 7.14783L12.866 7.14649Z" fill="#1E1E22"/>
</svg>
