<svg width="40" height="40" viewBox="0 0 40 40" fill="none" xmlns="http://www.w3.org/2000/svg">
<circle cx="20" cy="20" r="20" fill="#E6FEF3"/>
<path d="M11 20.5C11.7833 16.2333 15.5225 13 20.0158 13C24.5092 13 28.2475 16.2333 29.0317 20.5C28.2483 24.7667 24.5092 28 20.0158 28C15.5225 28 11.7842 24.7667 11 20.5V20.5ZM20.0158 24.6667C21.1209 24.6667 22.1807 24.2277 22.9621 23.4463C23.7435 22.6649 24.1825 21.6051 24.1825 20.5C24.1825 19.3949 23.7435 18.3351 22.9621 17.5537C22.1807 16.7723 21.1209 16.3333 20.0158 16.3333C18.9108 16.3333 17.851 16.7723 17.0696 17.5537C16.2882 18.3351 15.8492 19.3949 15.8492 20.5C15.8492 21.6051 16.2882 22.6649 17.0696 23.4463C17.851 24.2277 18.9108 24.6667 20.0158 24.6667ZM20.0158 23C19.3528 23 18.7169 22.7366 18.2481 22.2678C17.7792 21.7989 17.5158 21.163 17.5158 20.5C17.5158 19.837 17.7792 19.2011 18.2481 18.7322C18.7169 18.2634 19.3528 18 20.0158 18C20.6789 18 21.3148 18.2634 21.7836 18.7322C22.2524 19.2011 22.5158 19.837 22.5158 20.5C22.5158 21.163 22.2524 21.7989 21.7836 22.2678C21.3148 22.7366 20.6789 23 20.0158 23Z" fill="#07A287"/>
</svg>
