<svg width="52" height="32" viewBox="0 0 52 32" fill="none" xmlns="http://www.w3.org/2000/svg">
<path d="M10.6275 6.27136C19.0878 -2.012 32.8047 -2.012 41.265 6.27136L42.2832 7.26827C42.7063 7.68244 42.7063 8.35394 42.2832 8.76811L38.8001 12.1784C38.5886 12.3854 38.2457 12.3854 38.0342 12.1784L36.633 10.8065C30.7309 5.0278 21.1616 5.0278 15.2595 10.8065L13.759 12.2756C13.5475 12.4827 13.2045 12.4827 12.993 12.2756L9.50992 8.8654C9.08691 8.45123 9.08691 7.77973 9.50992 7.36556L10.6275 6.27136ZM48.4684 13.3241L51.5684 16.3593C51.9914 16.7734 51.9914 17.4449 51.5684 17.8591L37.5904 31.5449C37.1674 31.9591 36.4816 31.9591 36.0585 31.5449C36.0585 31.5449 36.0585 31.5449 36.0585 31.5449L26.1378 21.8317C26.0321 21.7281 25.8606 21.7281 25.7549 21.8317C25.7549 21.8317 25.7549 21.8317 25.7549 21.8317L15.8343 31.5449C15.4113 31.9591 14.7255 31.9591 14.3025 31.5449C14.3025 31.5449 14.3025 31.5449 14.3025 31.5449L0.324098 17.8589C-0.098918 17.4447 -0.098918 16.7732 0.324098 16.3591L3.42407 13.3239C3.84709 12.9098 4.53293 12.9098 4.95595 13.3239L14.8768 23.0373C14.9826 23.1408 15.154 23.1408 15.2598 23.0373C15.2598 23.0373 15.2598 23.0373 15.2598 23.0373L25.1801 13.3239C25.6032 12.9098 26.289 12.9097 26.712 13.3239C26.712 13.3239 26.712 13.3239 26.712 13.3239L36.6329 23.0373C36.7386 23.1408 36.9101 23.1408 37.0159 23.0373L46.9365 13.3241C47.3596 12.9099 48.0454 12.9099 48.4684 13.3241Z" fill="#3B99FC"/>
</svg>
