<svg width="44" height="48" viewBox="0 0 44 48" fill="none" xmlns="http://www.w3.org/2000/svg">
<path d="M16.9079 10.9699C16.4017 10.8913 16.3804 10.8821 16.6186 10.8454C17.0752 10.7752 18.1532 10.8709 18.8959 11.0476C20.6302 11.4598 22.2083 12.5158 23.8928 14.3914L24.3403 14.8896L24.9804 14.7866C27.6774 14.3532 30.4211 14.6977 32.7159 15.7579C33.3472 16.0495 34.3426 16.63 34.467 16.7792C34.5066 16.8268 34.5794 17.1328 34.6286 17.4594C34.7991 18.5893 34.7138 19.4553 34.3681 20.1023C34.1801 20.4543 34.1696 20.5657 34.296 20.8671C34.397 21.1075 34.6783 21.2854 34.9569 21.2849C35.5272 21.2842 36.1411 20.3623 36.4255 19.0796L36.5384 18.5701L36.7623 18.8236C37.9898 20.2144 38.9539 22.1111 39.1197 23.4613L39.1628 23.8133L38.9564 23.4932C38.6013 22.9426 38.2445 22.5678 37.7876 22.2654C36.964 21.7204 36.0931 21.5349 33.7867 21.4134C31.7037 21.3037 30.5248 21.1257 29.3558 20.7445C27.3668 20.0961 26.3642 19.2325 24.0017 16.1328C22.9523 14.7559 22.3037 13.9942 21.6585 13.3808C20.1924 11.9868 18.7519 11.2559 16.9079 10.9699Z" fill="#FF007A"/>
<path d="M34.9365 14.0436C34.9888 13.121 35.1139 12.5125 35.3655 11.9568C35.465 11.7368 35.5584 11.5568 35.5727 11.5568C35.5871 11.5568 35.5439 11.7191 35.4766 11.9176C35.2937 12.4569 35.2637 13.1946 35.3897 14.0528C35.5496 15.1418 35.6405 15.2989 36.7915 16.4752C37.3313 17.027 37.9593 17.723 38.1869 18.0217L38.6007 18.5649L38.1869 18.1767C37.6807 17.7019 36.5166 16.776 36.2595 16.6436C36.0871 16.5549 36.0615 16.5564 35.9551 16.6623C35.8571 16.7598 35.8365 16.9064 35.8228 17.5993C35.8017 18.6792 35.6545 19.3723 35.2992 20.0653C35.1071 20.4402 35.0768 20.3602 35.2507 19.9371C35.3805 19.6212 35.3937 19.4823 35.3927 18.4369C35.3907 16.3365 35.1413 15.8315 33.6789 14.9664C33.3085 14.7473 32.6981 14.4313 32.3225 14.2641C31.9469 14.0969 31.6486 13.9514 31.6595 13.9404C31.7008 13.8993 33.127 14.3155 33.7011 14.5363C34.5549 14.8648 34.6959 14.9073 34.7995 14.8677C34.8691 14.8412 34.9027 14.6387 34.9365 14.0436Z" fill="#FF007A"/>
<path d="M17.8922 17.6367C16.8645 16.2219 16.2287 14.0525 16.3663 12.4309L16.4089 11.9291L16.6428 11.9718C17.0821 12.0518 17.8396 12.3338 18.1942 12.5492C19.1676 13.1404 19.5889 13.9186 20.0176 15.917C20.1431 16.5024 20.308 17.1649 20.3838 17.3891C20.5058 17.7501 20.9669 18.5932 21.3419 19.1408C21.6119 19.5352 21.4325 19.7221 20.8356 19.6682C19.9239 19.5859 18.6889 18.7335 17.8922 17.6367Z" fill="#FF007A"/>
<path d="M33.6886 28.167C28.8859 26.2332 27.1943 24.5547 27.1943 21.7226C27.1943 21.3058 27.2086 20.9648 27.2262 20.9648C27.2436 20.9648 27.4295 21.1024 27.6391 21.2704C28.613 22.0517 29.7035 22.3852 32.7227 22.8258C34.4993 23.0849 35.4992 23.2943 36.4214 23.6002C39.3527 24.5723 41.1664 26.5452 41.5989 29.2324C41.7246 30.0132 41.6509 31.4775 41.4471 32.2492C41.2862 32.8588 40.7953 33.9575 40.6652 33.9996C40.6291 34.0114 40.5936 33.8729 40.5844 33.6847C40.535 32.6756 40.0252 31.6933 39.1688 30.9574C38.1951 30.1208 36.887 29.4547 33.6886 28.167Z" fill="#FF007A"/>
<path d="M30.3174 28.9705C30.2572 28.6124 30.1529 28.1551 30.0855 27.9543L29.9629 27.5891L30.1905 27.8446C30.5055 28.1982 30.7545 28.6506 30.9654 29.2531C31.1264 29.7131 31.1445 29.8499 31.1433 30.5972C31.1421 31.3309 31.1219 31.4847 30.9733 31.8986C30.7389 32.5514 30.4479 33.0143 29.9597 33.5111C29.0823 34.4039 27.9545 34.8983 26.3268 35.1034C26.0438 35.139 25.2192 35.199 24.4942 35.2367C22.6671 35.3317 21.4647 35.528 20.3842 35.9073C20.2288 35.962 20.0902 35.9951 20.0761 35.981C20.0324 35.9375 20.768 35.499 21.3757 35.2064C22.2324 34.7936 23.0853 34.5684 24.9962 34.2502C25.9403 34.093 26.9151 33.9022 27.1626 33.8263C29.5003 33.1096 30.702 31.2599 30.3174 28.9705Z" fill="#FF007A"/>
<path d="M32.5204 32.8805C31.8823 31.5088 31.7358 30.1844 32.0853 28.9493C32.1228 28.8172 32.1828 28.7092 32.219 28.7092C32.2552 28.7092 32.4058 28.7906 32.5536 28.8901C32.8477 29.0881 33.4375 29.4215 35.0086 30.2781C36.9692 31.347 38.0872 32.1748 38.8473 33.1205C39.513 33.9487 39.925 34.8918 40.1233 36.0421C40.2355 36.6936 40.1698 38.2613 40.0026 38.9175C39.4754 40.986 38.2503 42.611 36.5029 43.5592C36.2468 43.698 36.017 43.8121 35.9921 43.8125C35.9673 43.8131 36.0605 43.5759 36.1994 43.2855C36.7873 42.0566 36.8542 40.8613 36.4098 39.5309C36.1377 38.7163 35.5829 37.7223 34.4626 36.0424C33.1601 34.0891 32.8408 33.5693 32.5204 32.8805Z" fill="#FF007A"/>
<path d="M14.4778 40.2817C16.2601 38.7769 18.4777 37.7077 20.4976 37.3797C21.3682 37.2382 22.8184 37.2944 23.6246 37.5006C24.9167 37.8314 26.0727 38.572 26.6739 39.4545C27.2614 40.317 27.5134 41.0685 27.7758 42.7408C27.8794 43.4004 27.992 44.0629 28.0261 44.2128C28.2231 45.0795 28.6066 45.7722 29.0818 46.1201C29.8367 46.6725 31.1364 46.7069 32.415 46.2081C32.632 46.1235 32.8204 46.065 32.8337 46.0782C32.88 46.1243 32.2362 46.5552 31.782 46.782C31.1708 47.0874 30.6848 47.2054 30.039 47.2054C28.868 47.2054 27.8958 46.6096 27.0846 45.395C26.9249 45.1559 26.5661 44.4399 26.2871 43.8039C25.4306 41.8502 25.0076 41.2551 24.0131 40.6038C23.1476 40.037 22.0314 39.9355 21.1918 40.3472C20.0887 40.888 19.781 42.2976 20.571 43.1908C20.885 43.5458 21.4705 43.8521 21.9492 43.9117C22.8449 44.0231 23.6147 43.3417 23.6147 42.4373C23.6147 41.8502 23.389 41.5151 22.8208 41.2587C22.0449 40.9085 21.2108 41.3178 21.2148 42.0468C21.2165 42.3576 21.3519 42.5528 21.6634 42.6938C21.8633 42.7843 21.868 42.7914 21.705 42.7576C20.993 42.61 20.8262 41.7516 21.3986 41.1818C22.086 40.4977 23.5072 40.7996 23.9952 41.7333C24.2002 42.1255 24.2241 42.9066 24.0453 43.3782C23.6452 44.434 22.4788 44.9891 21.2953 44.687C20.4897 44.4813 20.1616 44.2586 19.1902 43.258C17.5023 41.5193 16.8469 41.1824 14.4135 40.8025L13.9473 40.7297L14.4778 40.2817Z" fill="#FF007A"/>
<path fill-rule="evenodd" clip-rule="evenodd" d="M1.75107 1.33238C7.38796 8.17396 16.0786 18.826 16.5101 19.4223C16.8662 19.9147 16.7321 20.3574 16.1218 20.7044C15.7825 20.8972 15.0848 21.0928 14.7355 21.0928C14.3403 21.0928 13.8952 20.9025 13.571 20.595C13.3419 20.3777 12.4172 18.9968 10.2825 15.6846C8.64922 13.1502 7.2823 11.0478 7.24495 11.0126C7.15874 10.9312 7.1602 10.9339 10.116 16.2225C11.972 19.5434 12.5985 20.7174 12.5985 20.8744C12.5985 21.1938 12.5114 21.3617 12.1173 21.8011C11.4607 22.5337 11.167 23.357 10.9552 25.0608C10.7175 26.9707 10.0495 28.3199 8.19794 30.6289C7.11424 31.9805 6.9369 32.2283 6.66341 32.7731C6.31891 33.4592 6.2242 33.8433 6.18585 34.7097C6.14526 35.6257 6.22432 36.2173 6.50407 37.093C6.74906 37.8597 7.00478 38.366 7.65855 39.3785C8.22276 40.2523 8.54758 40.9017 8.54758 41.1557C8.54758 41.3578 8.58616 41.358 9.46043 41.1607C11.5526 40.6882 13.2514 39.8572 14.2068 38.8391C14.7981 38.2088 14.9369 37.8607 14.9414 36.9971C14.9443 36.4321 14.9245 36.3138 14.7718 35.9888C14.5232 35.4598 14.0706 35.0201 13.0732 34.3381C11.7664 33.4447 11.2081 32.7255 11.0539 31.7363C10.9274 30.9248 11.0742 30.3522 11.7972 28.8369C12.5455 27.2684 12.731 26.6001 12.8564 25.0191C12.9374 23.9977 13.0496 23.5948 13.343 23.2715C13.6492 22.9344 13.9247 22.8202 14.6821 22.7167C15.917 22.548 16.7034 22.2285 17.3497 21.6329C17.9104 21.1163 18.145 20.6184 18.181 19.8689L18.2084 19.3009L17.895 18.9356C16.7603 17.6125 0.991158 0.292358 0.92133 0.292358C0.906414 0.292358 1.2798 0.760399 1.75107 1.33238ZM9.18458 35.7461C9.44108 35.2917 9.30478 34.7076 8.87564 34.4222C8.4702 34.1526 7.84025 34.2796 7.84025 34.631C7.84025 34.7382 7.89962 34.8162 8.03324 34.885C8.25821 35.0007 8.27453 35.131 8.09753 35.397C7.91818 35.6665 7.93272 35.9034 8.13834 36.0643C8.46976 36.3238 8.93882 36.1811 9.18458 35.7461Z" fill="#FF007A"/>
<path fill-rule="evenodd" clip-rule="evenodd" d="M18.9862 23.0147C18.4066 23.1928 17.8431 23.8073 17.6686 24.4514C17.5622 24.8445 17.6226 25.5339 17.782 25.7469C18.0395 26.0907 18.2885 26.1814 18.9629 26.1766C20.283 26.1674 21.4307 25.6012 21.5641 24.8933C21.6736 24.3131 21.1695 23.5089 20.4751 23.1559C20.1169 22.9739 19.3549 22.9016 18.9862 23.0147ZM20.5296 24.2215C20.7332 23.9323 20.6441 23.6196 20.2979 23.4082C19.6384 23.0056 18.6413 23.3388 18.6413 23.9617C18.6413 24.2717 19.1613 24.6101 19.638 24.6101C19.9552 24.6101 20.3894 24.4209 20.5296 24.2215Z" fill="#FF007A"/>
</svg>
